<mxfile host="app.diagrams.net" modified="2024-01-29T06:55:23.560Z" agent="Mozilla/5.0 (X11; CrOS x86_64 14541.0.0) AppleWebKit/537.36 (KHTML, like Gecko) Chrome/120.0.0.0 Safari/537.36" etag="iiTJcOLpE8L4PXKGI3I-" version="23.0.2" type="github">
  <diagram name="Page-1" id="4YLmCjJkLpTZhvKTsebr">
    <mxGraphModel dx="1257" dy="657" grid="1" gridSize="10" guides="1" tooltips="1" connect="1" arrows="1" fold="1" page="1" pageScale="1" pageWidth="827" pageHeight="1169" math="0" shadow="0">
      <root>
        <mxCell id="0" />
        <mxCell id="1" parent="0" />
        <mxCell id="OTJtfnGXg2g-zWVg3H52-20" value="" style="edgeStyle=orthogonalEdgeStyle;rounded=0;orthogonalLoop=1;jettySize=auto;html=1;" edge="1" parent="1" source="OTJtfnGXg2g-zWVg3H52-1" target="OTJtfnGXg2g-zWVg3H52-19">
          <mxGeometry relative="1" as="geometry" />
        </mxCell>
        <mxCell id="OTJtfnGXg2g-zWVg3H52-1" value="Isi form kunjungan" style="rounded=1;whiteSpace=wrap;html=1;" vertex="1" parent="1">
          <mxGeometry x="370" y="120" width="120" height="70" as="geometry" />
        </mxCell>
        <mxCell id="OTJtfnGXg2g-zWVg3H52-2" value="user/pengunjung perpus" style="rounded=1;whiteSpace=wrap;html=1;" vertex="1" parent="1">
          <mxGeometry x="150" y="300" width="120" height="60" as="geometry" />
        </mxCell>
        <mxCell id="OTJtfnGXg2g-zWVg3H52-3" value="" style="endArrow=classic;html=1;rounded=0;exitX=1;exitY=0.5;exitDx=0;exitDy=0;entryX=0;entryY=0.5;entryDx=0;entryDy=0;" edge="1" parent="1" source="OTJtfnGXg2g-zWVg3H52-2" target="OTJtfnGXg2g-zWVg3H52-6">
          <mxGeometry width="50" height="50" relative="1" as="geometry">
            <mxPoint x="279.2800000000002" y="307.9999999999999" as="sourcePoint" />
            <mxPoint x="370" y="312" as="targetPoint" />
          </mxGeometry>
        </mxCell>
        <mxCell id="OTJtfnGXg2g-zWVg3H52-4" value="" style="endArrow=classic;html=1;rounded=0;exitX=0.5;exitY=0;exitDx=0;exitDy=0;" edge="1" parent="1" source="OTJtfnGXg2g-zWVg3H52-6" target="OTJtfnGXg2g-zWVg3H52-1">
          <mxGeometry width="50" height="50" relative="1" as="geometry">
            <mxPoint x="390.0000000000001" y="210.00000000000006" as="sourcePoint" />
            <mxPoint x="430" y="280" as="targetPoint" />
          </mxGeometry>
        </mxCell>
        <mxCell id="OTJtfnGXg2g-zWVg3H52-6" value="masuk ke perpus" style="rounded=1;whiteSpace=wrap;html=1;" vertex="1" parent="1">
          <mxGeometry x="365" y="300" width="130" height="60" as="geometry" />
        </mxCell>
        <mxCell id="OTJtfnGXg2g-zWVg3H52-10" value="" style="endArrow=classic;html=1;rounded=0;exitX=0.5;exitY=1;exitDx=0;exitDy=0;entryX=0.5;entryY=0;entryDx=0;entryDy=0;" edge="1" parent="1" source="OTJtfnGXg2g-zWVg3H52-6" target="OTJtfnGXg2g-zWVg3H52-12">
          <mxGeometry width="50" height="50" relative="1" as="geometry">
            <mxPoint x="429.57" y="370" as="sourcePoint" />
            <mxPoint x="429.57" y="475" as="targetPoint" />
          </mxGeometry>
        </mxCell>
        <mxCell id="OTJtfnGXg2g-zWVg3H52-24" value="" style="edgeStyle=orthogonalEdgeStyle;rounded=0;orthogonalLoop=1;jettySize=auto;html=1;" edge="1" parent="1" source="OTJtfnGXg2g-zWVg3H52-12" target="OTJtfnGXg2g-zWVg3H52-23">
          <mxGeometry relative="1" as="geometry" />
        </mxCell>
        <mxCell id="OTJtfnGXg2g-zWVg3H52-12" value="Daftar Buku" style="rounded=1;whiteSpace=wrap;html=1;" vertex="1" parent="1">
          <mxGeometry x="367.5" y="480" width="125" height="60" as="geometry" />
        </mxCell>
        <mxCell id="OTJtfnGXg2g-zWVg3H52-22" value="" style="edgeStyle=orthogonalEdgeStyle;rounded=0;orthogonalLoop=1;jettySize=auto;html=1;" edge="1" parent="1" source="OTJtfnGXg2g-zWVg3H52-19" target="OTJtfnGXg2g-zWVg3H52-21">
          <mxGeometry relative="1" as="geometry" />
        </mxCell>
        <mxCell id="OTJtfnGXg2g-zWVg3H52-19" value="Kirim" style="whiteSpace=wrap;html=1;rounded=1;" vertex="1" parent="1">
          <mxGeometry x="570" y="125" width="120" height="60" as="geometry" />
        </mxCell>
        <mxCell id="OTJtfnGXg2g-zWVg3H52-21" value="daftar kunjungan" style="whiteSpace=wrap;html=1;rounded=1;" vertex="1" parent="1">
          <mxGeometry x="770" y="125" width="120" height="60" as="geometry" />
        </mxCell>
        <mxCell id="OTJtfnGXg2g-zWVg3H52-26" value="" style="edgeStyle=orthogonalEdgeStyle;rounded=0;orthogonalLoop=1;jettySize=auto;html=1;" edge="1" parent="1" source="OTJtfnGXg2g-zWVg3H52-23" target="OTJtfnGXg2g-zWVg3H52-25">
          <mxGeometry relative="1" as="geometry" />
        </mxCell>
        <mxCell id="OTJtfnGXg2g-zWVg3H52-23" value="pencarian" style="whiteSpace=wrap;html=1;rounded=1;" vertex="1" parent="1">
          <mxGeometry x="575" y="480" width="120" height="60" as="geometry" />
        </mxCell>
        <mxCell id="OTJtfnGXg2g-zWVg3H52-28" value="" style="edgeStyle=orthogonalEdgeStyle;rounded=0;orthogonalLoop=1;jettySize=auto;html=1;" edge="1" parent="1" source="OTJtfnGXg2g-zWVg3H52-25" target="OTJtfnGXg2g-zWVg3H52-27">
          <mxGeometry relative="1" as="geometry" />
        </mxCell>
        <mxCell id="OTJtfnGXg2g-zWVg3H52-25" value="memasukkan kata kunci" style="whiteSpace=wrap;html=1;rounded=1;" vertex="1" parent="1">
          <mxGeometry x="775" y="480" width="120" height="60" as="geometry" />
        </mxCell>
        <mxCell id="OTJtfnGXg2g-zWVg3H52-31" value="" style="edgeStyle=orthogonalEdgeStyle;rounded=0;orthogonalLoop=1;jettySize=auto;html=1;" edge="1" parent="1" source="OTJtfnGXg2g-zWVg3H52-27" target="OTJtfnGXg2g-zWVg3H52-30">
          <mxGeometry relative="1" as="geometry" />
        </mxCell>
        <mxCell id="OTJtfnGXg2g-zWVg3H52-27" value="hasil pencarian" style="whiteSpace=wrap;html=1;rounded=1;" vertex="1" parent="1">
          <mxGeometry x="975" y="480" width="120" height="60" as="geometry" />
        </mxCell>
        <mxCell id="OTJtfnGXg2g-zWVg3H52-30" value="detail buku" style="whiteSpace=wrap;html=1;rounded=1;" vertex="1" parent="1">
          <mxGeometry x="975" y="620" width="120" height="60" as="geometry" />
        </mxCell>
        <mxCell id="OTJtfnGXg2g-zWVg3H52-34" value="" style="endArrow=classic;html=1;rounded=0;entryX=0.5;entryY=0;entryDx=0;entryDy=0;exitX=0.5;exitY=0;exitDx=0;exitDy=0;" edge="1" parent="1" source="OTJtfnGXg2g-zWVg3H52-21" target="OTJtfnGXg2g-zWVg3H52-1">
          <mxGeometry width="50" height="50" relative="1" as="geometry">
            <mxPoint x="550" y="140" as="sourcePoint" />
            <mxPoint x="600" y="90" as="targetPoint" />
            <Array as="points">
              <mxPoint x="830" y="70" />
              <mxPoint x="430" y="70" />
            </Array>
          </mxGeometry>
        </mxCell>
        <mxCell id="OTJtfnGXg2g-zWVg3H52-35" value="" style="endArrow=classic;html=1;rounded=0;exitX=0.425;exitY=0.988;exitDx=0;exitDy=0;entryX=0;entryY=0.75;entryDx=0;entryDy=0;exitPerimeter=0;" edge="1" parent="1" source="OTJtfnGXg2g-zWVg3H52-12" target="OTJtfnGXg2g-zWVg3H52-30">
          <mxGeometry width="50" height="50" relative="1" as="geometry">
            <mxPoint x="550" y="600" as="sourcePoint" />
            <mxPoint x="600" y="550" as="targetPoint" />
            <Array as="points">
              <mxPoint x="420" y="665" />
            </Array>
          </mxGeometry>
        </mxCell>
      </root>
    </mxGraphModel>
  </diagram>
</mxfile>
